<svg width="23" height="23" viewBox="0 0 23 23" fill="none" xmlns="http://www.w3.org/2000/svg">
<path d="M17.4297 20.02C16.6123 20.02 15.8133 19.7789 15.1336 19.3271C14.454 18.8754 13.9243 18.2333 13.6115 17.482C13.2987 16.7308 13.2168 15.9042 13.3763 15.1067C13.5358 14.3092 13.9294 13.5766 14.5073 13.0016C15.0853 12.4267 15.8217 12.0351 16.6234 11.8765C17.4251 11.7179 18.2561 11.7993 19.0112 12.1104C19.7664 12.4216 20.4119 12.9486 20.866 13.6246C21.3201 14.3007 21.5625 15.0956 21.5625 15.9087C21.5613 16.9987 21.1255 18.0438 20.3507 18.8145C19.5759 19.5853 18.5254 20.0188 17.4297 20.02ZM17.4297 13.2275C16.8966 13.2275 16.3755 13.3847 15.9323 13.6794C15.489 13.974 15.1435 14.3927 14.9395 14.8827C14.7355 15.3726 14.6822 15.9117 14.7862 16.4318C14.8902 16.9519 15.1469 17.4297 15.5238 17.8047C15.9008 18.1796 16.381 18.435 16.9039 18.5385C17.4267 18.6419 17.9686 18.5888 18.4611 18.3859C18.9536 18.183 19.3746 17.8393 19.6708 17.3984C19.9669 16.9574 20.125 16.439 20.125 15.9087C20.1242 15.1979 19.8399 14.5164 19.3346 14.0137C18.8294 13.5111 18.1443 13.2283 17.4297 13.2275Z" fill="#1D2E5B"/>
<path d="M5.57031 20.02C4.75292 20.02 3.95388 19.7789 3.27425 19.3271C2.59461 18.8754 2.0649 18.2333 1.75209 17.482C1.43929 16.7308 1.35745 15.9042 1.51691 15.1067C1.67638 14.3092 2.06999 13.5766 2.64797 13.0016C3.22596 12.4267 3.96236 12.0351 4.76404 11.8765C5.56573 11.7179 6.3967 11.7993 7.15187 12.1104C7.90705 12.4216 8.5525 12.9486 9.00662 13.6246C9.46074 14.3007 9.70313 15.0956 9.70313 15.9087C9.70194 16.9987 9.26614 18.0438 8.49134 18.8145C7.71655 19.5853 6.66604 20.0188 5.57031 20.02ZM5.57031 13.2275C5.03723 13.2275 4.51612 13.3847 4.07288 13.6794C3.62964 13.974 3.28417 14.3927 3.08017 14.8827C2.87617 15.3726 2.82279 15.9117 2.92679 16.4318C3.03079 16.9519 3.28749 17.4297 3.66444 17.8047C4.04139 18.1796 4.52165 18.435 5.04448 18.5385C5.56732 18.6419 6.10926 18.5888 6.60177 18.3859C7.09427 18.183 7.51522 17.8393 7.81139 17.3984C8.10755 16.9574 8.26563 16.439 8.26563 15.9087C8.26479 15.1979 7.98056 14.5164 7.47527 14.0137C6.96998 13.5111 6.2849 13.2283 5.57031 13.2275Z" fill="#1D2E5B"/>
<path d="M14.3749 5.72C14.5642 5.72065 14.7518 5.68396 14.9268 5.61205C15.1018 5.54014 15.2608 5.43443 15.3944 5.30104C15.5281 5.16765 15.6339 5.00922 15.7056 4.83491C15.7774 4.6606 15.8137 4.47388 15.8124 4.28553C15.8145 4.09813 15.779 3.91219 15.708 3.73858C15.637 3.56498 15.532 3.4072 15.399 3.27447C15.2659 3.14174 15.1077 3.03672 14.9334 2.96555C14.7591 2.89439 14.5723 2.8585 14.3839 2.86C14.1951 2.85941 14.0081 2.89582 13.8334 2.96714C13.6588 3.03846 13.5 3.1433 13.3661 3.27568C13.2322 3.40805 13.1258 3.56536 13.053 3.73863C12.9803 3.9119 12.9425 4.09774 12.9419 4.28553C12.9413 4.47332 12.9779 4.65939 13.0496 4.83311C13.1213 5.00683 13.2267 5.1648 13.3598 5.298C13.4928 5.43121 13.651 5.53703 13.8251 5.60944C13.9993 5.68184 14.1861 5.71941 14.3749 5.72Z" fill="#1D2E5B"/>
<path d="M16.511 8.58009H14.5453C14.513 8.5801 14.4814 8.57147 14.4536 8.55511C14.4259 8.53876 14.4031 8.51528 14.3876 8.48714L12.9618 5.88767C12.8613 5.69449 12.7165 5.52755 12.5392 5.40038C12.3618 5.2732 12.1568 5.18936 11.9408 5.15564C11.7248 5.12192 11.5039 5.13926 11.2959 5.20627C11.0879 5.27327 10.8986 5.38806 10.7435 5.54134L7.60527 8.68734C7.34163 8.95503 7.19197 9.3136 7.1875 9.68834C7.1875 10.4659 7.75352 10.743 8.01855 10.8994C9.29883 11.6331 10.2004 12.1698 10.695 12.4679C10.7213 12.4838 10.743 12.5062 10.7581 12.5329C10.7732 12.5596 10.7812 12.5897 10.7813 12.6203V15.7091C10.7813 16.0938 11.0786 16.4241 11.4654 16.4433C11.5625 16.448 11.6596 16.433 11.7507 16.3992C11.8418 16.3655 11.9251 16.3137 11.9955 16.2471C12.0659 16.1804 12.122 16.1002 12.1604 16.0113C12.1988 15.9225 12.2186 15.8268 12.2188 15.7301V11.887C12.2188 11.7735 12.1917 11.6616 12.1397 11.5606C12.0877 11.4595 12.0122 11.3723 11.9196 11.306L10.2575 10.1169C10.2366 10.102 10.2192 10.0829 10.2064 10.0608C10.1935 10.0387 10.1856 10.0141 10.1832 9.98872C10.1807 9.96332 10.1837 9.93769 10.192 9.91355C10.2004 9.8894 10.2138 9.86732 10.2314 9.84877L12.1181 7.84721C12.1375 7.82662 12.1614 7.81087 12.1881 7.80125C12.2147 7.79162 12.2432 7.7884 12.2714 7.79185C12.2995 7.79529 12.3264 7.8053 12.3499 7.82105C12.3734 7.83681 12.3928 7.85787 12.4065 7.88252L13.3867 9.64231C13.449 9.75387 13.5402 9.8468 13.6508 9.91147C13.7614 9.97614 13.8873 10.0102 14.0156 10.0101H16.5313C16.6286 10.0102 16.725 9.99063 16.8145 9.95257C16.9041 9.9145 16.9849 9.85874 17.0521 9.78865C17.1193 9.71857 17.1715 9.63563 17.2055 9.54488C17.2396 9.45412 17.2547 9.35743 17.25 9.26068C17.2311 8.87592 16.8978 8.58009 16.511 8.58009Z" fill="#1D2E5B"/>
</svg>
