<svg width="23" height="23" viewBox="0 0 23 23" fill="none" xmlns="http://www.w3.org/2000/svg">
<g clip-path="url(#clip0_1369_1592)">
<path d="M5.75127 15.5257C5.75127 15.0746 5.56417 14.6894 5.18998 14.3702C4.81579 14.051 4.36426 13.8914 3.8354 13.8914C3.30654 13.8914 2.85501 14.051 2.48082 14.3702C2.10663 14.6894 1.91953 15.0746 1.91953 15.5257C1.91953 15.9768 2.10663 16.362 2.48082 16.6812C2.85501 17.0004 3.30654 17.16 3.8354 17.16C4.36426 17.16 4.81579 17.0004 5.18998 16.6812C5.56417 16.362 5.75127 15.9768 5.75127 15.5257ZM21.0782 15.5257C21.0782 15.0746 20.8911 14.6894 20.5169 14.3702C20.1427 14.051 19.6912 13.8914 19.1623 13.8914C18.6335 13.8914 18.182 14.051 17.8078 14.3702C17.4336 14.6894 17.2465 15.0746 17.2465 15.5257C17.2465 15.9768 17.4336 16.362 17.8078 16.6812C18.182 17.0004 18.6335 17.16 19.1623 17.16C19.6912 17.16 20.1427 17.0004 20.5169 16.6812C20.8911 16.362 21.0782 15.9768 21.0782 15.5257ZM20.3897 10.4696L19.312 5.56679C19.2621 5.37101 19.1499 5.21141 18.9753 5.08799C18.8006 4.96457 18.5986 4.90286 18.3691 4.90286H4.62869C4.39918 4.90286 4.19712 4.96457 4.0225 5.08799C3.84787 5.21141 3.73561 5.37101 3.68572 5.56679L2.60805 10.4696C2.55815 10.725 2.628 10.9506 2.81759 11.1463C3.00719 11.3421 3.25166 11.44 3.55101 11.44H19.4467C19.7461 11.44 19.9906 11.3421 20.1802 11.1463C20.3697 10.9506 20.4396 10.725 20.3897 10.4696ZM17.007 2.65571C17.007 2.48548 16.9371 2.34077 16.7974 2.22161C16.6577 2.10244 16.4881 2.04286 16.2885 2.04286H6.7092C6.50963 2.04286 6.34 2.10244 6.2003 2.22161C6.0606 2.34077 5.99075 2.48548 5.99075 2.65571C5.99075 2.82595 6.0606 2.97065 6.2003 3.08982C6.34 3.20899 6.50963 3.26857 6.7092 3.26857H16.2885C16.4881 3.26857 16.6577 3.20899 16.7974 3.08982C16.9371 2.97065 17.007 2.82595 17.007 2.65571ZM22.9941 11.9124V19.6114H21.0782V21.2457C21.0782 21.6968 20.8911 22.082 20.5169 22.4012C20.1427 22.7204 19.6912 22.88 19.1623 22.88C18.6335 22.88 18.182 22.7204 17.8078 22.4012C17.4336 22.082 17.2465 21.6968 17.2465 21.2457V19.6114H5.75127V21.2457C5.75127 21.6968 5.56417 22.082 5.18998 22.4012C4.81579 22.7204 4.36426 22.88 3.8354 22.88C3.30654 22.88 2.85501 22.7204 2.48082 22.4012C2.10663 22.082 1.91953 21.6968 1.91953 21.2457V19.6114H0.00366211V11.9124C0.00366211 10.9591 0.128393 10.01 0.377855 9.06518L1.91953 3.26857C2.00934 2.60464 2.49579 2.02158 3.37888 1.51938C4.26198 1.01717 5.4095 0.638393 6.82146 0.383036C8.23342 0.127679 9.79255 0 11.4989 0C13.2052 0 14.7643 0.127679 16.1763 0.383036C17.5882 0.638393 18.7358 1.01717 19.6189 1.51938C20.502 2.02158 20.9884 2.60464 21.0782 3.26857L22.6498 9.06518C22.8793 9.93339 22.9941 10.8825 22.9941 11.9124Z" fill="#1D2E5B"/>
</g>
<defs>
<clipPath id="clip0_1369_1592">
<rect width="23" height="22.88" fill="white"/>
</clipPath>
</defs>
</svg>
