<!-- icon666.com - MILLIONS OF FREE VECTOR ICONS --><svg id="Layer_1" viewBox="0 0 24 24" xmlns="http://www.w3.org/2000/svg" data-name="Layer 1"><g><path d="m22 1h-11a1 1 0 0 0 -1 1v5a1 1 0 0 0 2 0v-4h9v18h-9v-4a1 1 0 0 0 -2 0v5a1 1 0 0 0 1 1h11a1 1 0 0 0 1-1v-20a1 1 0 0 0 -1-1z" fill="#000000" style="fill: rgb(29, 46, 91);"></path><path d="m13.293 15.293a1 1 0 0 0 1.414 1.414l4-4a1 1 0 0 0 0-1.414l-4-4a1 1 0 1 0 -1.414 1.414l2.293 2.293h-13.586a1 1 0 0 0 0 2h13.586z" fill="#000000" style="fill: rgb(29, 46, 91);"></path></g></svg>