<svg width="20" height="18" viewBox="0 0 20 18" fill="none" xmlns="http://www.w3.org/2000/svg">
<path fill-rule="evenodd" clip-rule="evenodd" d="M10 6.87436L11.1175 4.52557C11.395 3.94396 11.8762 3.10764 12.5575 2.43149C13.2275 1.76585 14.03 1.3129 15 1.3129C17.095 1.3129 18.75 3.05381 18.75 5.14658C18.75 6.7365 18.0575 7.85903 16.415 9.57106C15.9937 10.0096 15.5138 10.4835 14.9825 11.0061C13.5975 12.3715 11.875 14.0704 10 16.3417C8.125 14.0704 6.4025 12.3715 5.0175 11.0061C4.48625 10.4835 4.005 10.0083 3.585 9.57106C1.9425 7.85903 1.25 6.7365 1.25 5.14658C1.25 3.05381 2.905 1.3129 5 1.3129C5.97 1.3129 6.7725 1.76585 7.4425 2.43149C8.12375 3.10764 8.605 3.94396 8.8825 4.52557L10 6.87436ZM10.49 17.7609C10.4298 17.8358 10.3548 17.896 10.2701 17.9373C10.1855 17.9786 10.0933 18 10 18C9.90668 18 9.81449 17.9786 9.72986 17.9373C9.64523 17.896 9.57019 17.8358 9.51 17.7609C7.50875 15.2638 5.6975 13.4783 4.20625 12.0091C1.625 9.4634 0 7.86297 0 5.14658C0 2.30414 2.2375 0 5 0C7 0 8.39875 1.37855 9.255 2.63631C9.58 3.11552 9.8275 3.57635 10 3.93871C10.2162 3.48519 10.4653 3.04978 10.745 2.63631C11.6012 1.37723 13 0 15 0C17.7625 0 20 2.30414 20 5.14658C20 7.86297 18.375 9.4634 15.7938 12.0091C14.3025 13.4796 12.4913 15.2651 10.49 17.7596V17.7609Z" fill="#192144"/>
</svg>
