<svg width="23" height="23" viewBox="0 0 23 23" fill="none" xmlns="http://www.w3.org/2000/svg">
<g clip-path="url(#clip0_1369_1608)">
<path d="M18.5347 1.22763C17.7301 1.41527 16.9218 1.6038 16.6212 2.12039L14.2941 6.66889L1.79919 9.58311L1.29295 11.0364L10.8544 11.9234L9.23212 15.861L5.60602 16.7067L4.69562 18.2543L7.31157 18.533L7.60988 19.7987C7.74352 20.2474 8.21259 20.5469 8.61297 20.4535L9.82167 20.1716L11.2228 22.5153L12.1332 20.9677L11.2383 17.1707L13.8637 13.8879L18.8731 22.5127L19.8832 21.3884L16.8005 8.30836L19.6314 4.08881C19.9358 3.57134 19.7373 2.72887 19.5378 1.88245C19.439 1.46319 18.9351 1.13425 18.5347 1.22763Z" fill="#1D2E5B"/>
</g>
<defs>
<clipPath id="clip0_1369_1608">
<rect width="23" height="22.88" fill="white"/>
</clipPath>
</defs>
</svg>
