<!-- icon666.com - MILLIONS OF FREE VECTOR ICONS --><svg viewBox="0 0 32 32" xmlns="http://www.w3.org/2000/svg"><g id="User" fill="rgb(0,0,0)" fill-rule="nonzero"><path id="Oval" d="m16 2c-7.7319865 0-14 6.2680135-14 14s6.2680135 14 14 14 14-6.2680135 14-14-6.2680135-14-14-14zm0 2c6.627417 0 12 5.372583 12 12s-5.372583 12-12 12-12-5.372583-12-12 5.372583-12 12-12z" fill="rgb(0,0,0)" style="fill: rgb(29, 46, 91);"></path><path id="Path" d="m16 18c4.277215 0 8.2365049 1.9320123 10.8734659 5.1806705l-1.3559923 1.5095208c-2.2589011-2.9363729-5.742082-4.6901913-9.5174736-4.6901913-3.6479945 0-7.02338032 1.6373865-9.28523145 4.3977129l-1.79779574-.9524837c2.63454432-3.4084961 6.69135839-5.4452292 11.08302719-5.4452292z" fill="rgb(0,0,0)" style="fill: rgb(29, 46, 91);"></path><path id="Oval" d="m16 6c-2.7614237 0-5 2.23857625-5 5 0 2.7614237 2.2385763 5 5 5s5-2.2385763 5-5c0-2.76142375-2.2385763-5-5-5zm0 2c1.6568542 0 3 1.34314575 3 3 0 1.6568542-1.3431458 3-3 3s-3-1.3431458-3-3c0-1.65685425 1.3431458-3 3-3z" fill="rgb(0,0,0)" style="fill: rgb(29, 46, 91);"></path></g></svg>