<svg width="23" height="23" viewBox="0 0 23 23" fill="none" xmlns="http://www.w3.org/2000/svg">
<path d="M16.2917 5.72001C17.3502 5.72001 18.2083 4.86637 18.2083 3.81334C18.2083 2.76032 17.3502 1.90668 16.2917 1.90668C15.2331 1.90668 14.375 2.76032 14.375 3.81334C14.375 4.86637 15.2331 5.72001 16.2917 5.72001Z" fill="#1D2E5B"/>
<path d="M15.1196 10.4571C15.3396 10.7832 15.6552 11.0341 16.0234 11.1756C16.3917 11.3172 16.7949 11.3426 17.1781 11.2484L20.356 10.458L19.8931 8.60857L16.7153 9.39889L15.3937 7.42835C15.1114 7.00751 14.6732 6.71485 14.1747 6.6142L10.489 5.88013C10.0766 5.79782 9.64852 5.85283 9.27076 6.03668C8.89299 6.22053 8.58658 6.52298 8.39883 6.89734L6.80992 10.0586L8.52438 10.9118L10.1133 7.74962L11.9983 8.12523L7.12425 16.2066H2.875V18.1133H7.12425C7.79317 18.1133 8.42279 17.7587 8.76779 17.1876L10.6059 14.1408L15.5595 15.1265L17.2998 20.3212L19.1168 19.7178L17.3775 14.524C17.2701 14.2051 17.0802 13.92 16.8268 13.6974C16.5734 13.4749 16.2656 13.3226 15.9342 13.2561L13.0218 12.6774L14.72 9.86126L15.1196 10.4571Z" fill="#1D2E5B"/>
</svg>
